<svg id="Layer_1" data-name="Layer 1" xmlns="http://www.w3.org/2000/svg" viewBox="0 0 80.98 71.25"><defs><style>.cls-1{fill:#7650ef;}</style></defs><path class="cls-1" d="M11.57,85.62,18.13,72S16.88,64.14,22,55.2C22,55.2,3.45,65.62,11.57,85.62Z" transform="translate(-9.51 -14.38)"/><path class="cls-1" d="M27,85.62s-9.82-7.88-5.7-23.1S39.58,41,42.63,40.38a5.28,5.28,0,0,0-1.42.93A37.45,37.45,0,0,0,37.77,44a29,29,0,0,0-8.6,12.46,47.09,47.09,0,0,0-1.92,10.4c-.36,4-.47,8-.46,12,0,2.19.06,4.38.17,6.57C27,85.5,27,85.61,27,85.62Z" transform="translate(-9.51 -14.38)"/><path class="cls-1" d="M37.72,85.62V67c0-4-.15-8.05.15-12a28.35,28.35,0,0,1,.82-5.11,19.12,19.12,0,0,1,4.53-8.32S32.93,48.6,30.57,58.84,29.47,79.34,37.72,85.62Z" transform="translate(-9.51 -14.38)"/><path class="cls-1" d="M51.86,57.85a14.77,14.77,0,0,0-5,3.94A18.78,18.78,0,0,0,43,69.48a25.35,25.35,0,0,1-1.58-22Z" transform="translate(-9.51 -14.38)"/><path class="cls-1" d="M82.64,73C82.42,74.45,75.87,85.62,63,85.62S44.71,72.24,44.71,72.24a17,17,0,0,1,2.57-7.47c2.39-3.72,7-7.33,15.87-6.77-1.29,2.61-2.87,8.09,2.59,13.36,7.48,7.22,16.73,1.73,16.9,1.63Z" transform="translate(-9.51 -14.38)"/><path class="cls-1" d="M79.48,68.34h0c-6.34-2.79-13,1.4-13,1.4a11,11,0,0,1-2.72-5.62A8.9,8.9,0,0,1,65,58.2C77.21,60.26,79.41,68.09,79.48,68.34Z" transform="translate(-9.51 -14.38)"/><path class="cls-1" d="M39.48,20.1S18.82,19.26,11.61,41c0,0-2.74-12.93,8.46-20,11-6.93,19.08-1.15,19.4-.92Z" transform="translate(-9.51 -14.38)"/><path class="cls-1" d="M63.42,32c-4.19-1.26-5.79.95-6.37,2.48a1,1,0,0,1-1,.68A1,1,0,0,1,55.5,35a1,1,0,0,1-.38-.47,5.42,5.42,0,0,0-2-2.67,4.48,4.48,0,0,0-5.69,1A4.7,4.7,0,0,0,46.57,36a3.4,3.4,0,0,0,.08.64c-16.51,3.83-22.39,15-22.39,15a22.11,22.11,0,0,0-11,8.09C10.05,49.34,14.1,29.34,34,23.49,51.86,18.26,63.42,32,63.42,32Z" transform="translate(-9.51 -14.38)"/><path class="cls-1" d="M81.19,48.56A30.4,30.4,0,0,1,61.51,54a10.44,10.44,0,0,0,2-2.18,22.34,22.34,0,0,0,2.41-4.4,11,11,0,0,0,5.47-4,8.1,8.1,0,0,0,2.86,3A13.56,13.56,0,0,0,81.19,48.56Z" transform="translate(-9.51 -14.38)"/><path class="cls-1" d="M79,31.74,75.2,33,71,34.3C70.3,26,74,23,74.11,22.9h0A15.53,15.53,0,0,0,79,31.74Z" transform="translate(-9.51 -14.38)"/><path class="cls-1" d="M85.4,46.58a16.37,16.37,0,0,1-5.35-.52,12.62,12.62,0,0,1-8.7-9l10.16-3.37L77,19.15s11.52,1.71,13.24,12.3A16.86,16.86,0,0,1,85.4,46.58Z" transform="translate(-9.51 -14.38)"/><path class="cls-1" d="M59.65,37.39c.58-1.19,1.51-1.91,2.08-1.63s.58,1.46,0,2.63S60.23,40.3,59.66,40,59.08,38.56,59.65,37.39Zm-8.89-2c.67,0,1.25,1,1.3,2.24S51.62,39.92,51,40s-1.24-1-1.3-2.25S50.1,35.38,50.76,35.35Zm8.42,7.76a12.71,12.71,0,0,0,1.39-1.31,16.55,16.55,0,0,0,1.73-2.33,5.3,5.3,0,0,0,1-3.56,2.21,2.21,0,0,0-2-1.61c-1.15,0-2,1.33-2.51,2.27C58,38,57.35,39.39,56.68,40.84c-.21.47-.41.94-.62,1.42a6.91,6.91,0,0,0-.35.85c-1.13,0-2.34.12-3.57.26A13.55,13.55,0,0,0,52.82,41a14.58,14.58,0,0,0,.39-2.88,4.81,4.81,0,0,0-1-3.6A2.11,2.11,0,0,0,49.79,34c-1.12.55-1.18,2.14-1.18,3.2A47.53,47.53,0,0,0,48.9,42c.06.52.11,1,.18,1.54a2.3,2.3,0,0,0,0,.26,28.5,28.5,0,0,0-6.26,1.85L54,56.82s8.69-4.64,9.83-13.37A45.55,45.55,0,0,0,59.18,43.11Z" transform="translate(-9.51 -14.38)"/><path class="cls-1" d="M22.13,17a20.33,20.33,0,0,0-4.9,2.43c-4.39,3-5.34,6.44-5.34,6.44-.2-.49-2.31-6.08-.46-11.4A17.16,17.16,0,0,1,22,16.92l.06,0Z" transform="translate(-9.51 -14.38)"/></svg>